<svg width="400" height="400" viewBox="0 0 400 400" fill="none" xmlns="http://www.w3.org/2000/svg">
<rect width="400" height="400" rx="200" fill="black"/>
<path d="M193.584 187.418H216.315L259.065 142.542L246.159 133.596L302.914 112.478L275.196 166.593L268.304 152.295L214.482 207.51L193.584 187.418Z" fill="white"/>
<path d="M193.584 306.72H212.356V219.902L184.638 193.138H171.953C171.953 193.138 175.912 171.286 210.742 177.152L221.815 165.787C221.815 165.787 202.53 152.295 175.912 161.827C175.912 161.827 147.168 174.953 152.448 210.736H179.652L193.657 224.668V306.72H193.584Z" fill="white"/>
<path d="M308.707 193.137H242.273L222.915 214.622V304.52C272.117 294.035 309 251.432 309 200.47C308.707 193.137 308.927 195.557 308.707 193.137ZM275.783 250.699C268.45 260.745 257.598 271.23 241.54 280.469V210.809H291.182C291.182 210.809 291.182 229.727 275.71 250.772L275.783 250.699Z" fill="white"/>
<path d="M201.723 128.024V110.938C218.222 111.525 233.547 116.438 246.746 124.357V123.991L264.784 115.558C246.672 101.993 223.281 94 198.79 94C139.249 94 91 141.296 91 199.737C91 258.178 131.476 297.995 183.978 305.181L184.638 287.655C175.839 286.482 168.14 284.796 160.367 281.349L168.213 265.731C173.566 268.077 179.285 269.837 185.225 270.937L185.518 262.064C155.747 256.712 133.163 232.001 133.163 200.91C133.163 169.82 162.053 137.189 197.617 137.189C233.18 137.189 226.581 140.929 237.653 148.995L244.106 142.469V142.029C232.594 133.743 217.048 128.61 201.796 128.024H201.723ZM114.978 162.194L130.963 169.746C126.563 178.766 124.144 188.738 123.997 199.297H106.399C106.399 186.025 109.552 173.486 114.978 162.194ZM160.807 262.138L151.861 277.61C140.129 271.157 131.036 262.798 123.19 252.165L137.709 243.073C143.868 251.505 151.568 256.932 160.734 262.211L160.807 262.138ZM133.089 234.494L118.791 244.319C112.191 233.32 107.938 220.782 106.765 207.436H124.364C125.39 217.189 128.47 226.354 133.089 234.494ZM134.923 162.707L118.864 155.081C126.197 142.835 136.462 132.496 148.781 124.87L158.314 139.609C148.855 145.549 140.862 153.395 134.996 162.707H134.923ZM193.584 128.17C183.465 128.83 173.932 131.47 165.28 135.649L155.747 120.911C167.186 115.118 180.018 111.672 193.584 111.012V128.17Z" fill="white"/>
</svg>
